<svg xmlns="http://www.w3.org/2000/svg" width="90.579" height="69.623" viewBox="0 0 90.579 69.623">
  <g id="cloud-moon" transform="translate(-0.2 -10.677)">
    <path id="Path_15" data-name="Path 15" d="M51.5,48.3H50.4a23.473,23.473,0,0,0-2-5.3c-3.3-6.2-9.2-9.6-16.5-9.6-7.4,0-13.3,3.4-16.5,9.6a27.314,27.314,0,0,0-2,5.6A15.567,15.567,0,0,0,.2,64.3C.2,72.4,6,78.8,14,80.1a5.853,5.853,0,0,0,1.3.2H51.5c9.5,0,16.7-6.9,16.7-16C68.2,55,61.2,48.3,51.5,48.3Zm0,24H16.9c-6,0-8.7-4.1-8.7-8,0-4.8,3.5-8,8.7-8a3.991,3.991,0,0,0,4-3.9c0-1.1.6-11.1,10.9-11.1,4.4,0,7.5,1.7,9.4,5.1a16.073,16.073,0,0,1,1.8,6,4.043,4.043,0,0,0,4,3.8h4.5c5.2,0,8.7,3.2,8.7,8C60.2,68.1,57.5,72.3,51.5,72.3Z" fill="#6dabd1"/>
    <path id="Path_16" data-name="Path 16" d="M90.3,43.7a2.986,2.986,0,0,0-2.7-1.3,17.253,17.253,0,0,1-16.3-8.6A17.452,17.452,0,0,1,72,15.4a2.95,2.95,0,0,0,.2-3,3.177,3.177,0,0,0-2.6-1.7,24.672,24.672,0,0,0-24.7,18A3.025,3.025,0,0,0,47,32.4a3.071,3.071,0,0,0,3.7-2.1,18.452,18.452,0,0,1,8.6-11.1,19.371,19.371,0,0,1,5-2A23.653,23.653,0,0,0,66,36.8,23.656,23.656,0,0,0,82.1,48.1a23.147,23.147,0,0,1-4.2,3.4,19.6,19.6,0,0,1-4.5,1.9,2.948,2.948,0,0,0-2.1,3.7,3.092,3.092,0,0,0,2.9,2.2,2.2,2.2,0,0,0,.8-.1,26.256,26.256,0,0,0,6-2.5,24.493,24.493,0,0,0,9.5-9.9A3.391,3.391,0,0,0,90.3,43.7Z" fill="#bdb8f8"/>
  </g>
</svg>
