<svg xmlns="http://www.w3.org/2000/svg" width="90.313" height="86.8" viewBox="0 0 90.313 86.8">
  <g id="clouds-sun" transform="translate(-0.2 -2.1)">
    <path id="Path_17" data-name="Path 17" d="M51.5,57H50.4a23.473,23.473,0,0,0-2-5.3c-3.3-6.2-9.2-9.6-16.5-9.6-7.4,0-13.3,3.4-16.5,9.6a27.314,27.314,0,0,0-2,5.6A15.466,15.466,0,0,0,.2,72.9,15.793,15.793,0,0,0,14,88.7a5.853,5.853,0,0,0,1.3.2H51.5c9.5,0,16.7-6.9,16.7-16C68.2,63.7,61.2,57,51.5,57Zm0,23.9H16.9c-6,0-8.7-4.1-8.7-8,0-4.8,3.5-8,8.7-8a4.058,4.058,0,0,0,4-3.9,14.894,14.894,0,0,1,1.7-6c1.8-3.4,4.9-5.1,9.2-5.1,4.4,0,7.5,1.7,9.4,5.1A16.073,16.073,0,0,1,43,61a4.043,4.043,0,0,0,4,3.8h4.5c5.2,0,8.7,3.2,8.7,8C60.2,76.8,57.5,80.9,51.5,80.9Z" fill="#6dabd1"/>
    <path id="Path_18" data-name="Path 18" d="M78.9,46.3h-.6a16.549,16.549,0,0,0-1.4-3.6,12.586,12.586,0,0,0-11.7-6.8,13.4,13.4,0,0,0-2,.1,17.463,17.463,0,0,0-34.3-1.8,2.983,2.983,0,1,0,5.8,1.4,11.4,11.4,0,0,1,22.5,2.6,11.2,11.2,0,0,0-3.8,4.5,15.629,15.629,0,0,0-1.7,6.5,3.075,3.075,0,0,0,2.9,3.1,3.005,3.005,0,0,0,3.1-2.9c.1-1.3.7-7.5,7.4-7.5,6.8,0,7.5,6.3,7.5,7.5a3.058,3.058,0,0,0,3,2.9h3.1c3.5,0,5.8,2.1,5.8,5.3,0,2.6-1.8,5.3-5.8,5.3H75.1a3,3,0,0,0,0,6h3.6c6.7,0,11.8-4.9,11.8-11.3C90.8,51.1,85.8,46.3,78.9,46.3Z" fill="#6dabd1"/>
    <path id="Path_19" data-name="Path 19" d="M46,14.6a2.946,2.946,0,0,0,3-3V5.1a3,3,0,0,0-6,0v6.5A2.946,2.946,0,0,0,46,14.6Z" fill="#6dabd1"/>
    <path id="Path_20" data-name="Path 20" d="M12.8,41.3h6.5a3,3,0,0,0,0-6H12.8a3,3,0,1,0,0,6Z" fill="#6dabd1"/>
    <path id="Path_21" data-name="Path 21" d="M64.9,22.4a2.878,2.878,0,0,0,2.1-.9l4.6-4.6a2.97,2.97,0,0,0-4.2-4.2l-4.6,4.6a2.9,2.9,0,0,0,0,4.2A2.723,2.723,0,0,0,64.9,22.4Z" fill="#6dabd1"/>
    <path id="Path_22" data-name="Path 22" d="M25,21.5a3.049,3.049,0,0,0,2.1.9,3,3,0,0,0,2.1-5.1l-4.6-4.6a2.97,2.97,0,0,0-4.2,4.2Z" fill="#6dabd1"/>
  </g>
</svg>
