<svg xmlns="http://www.w3.org/2000/svg" width="79.262" height="79.337" viewBox="0 0 79.262 79.337">
  <path id="Icon_weather-day-sunny" data-name="Icon weather-day-sunny" d="M5.244,44.431a3.152,3.152,0,0,1,.933-2.314,3.224,3.224,0,0,1,2.239-.9h7.613a2.828,2.828,0,0,1,2.164.933,3.506,3.506,0,0,1,.037,4.553,2.774,2.774,0,0,1-2.164.933H8.453a3.045,3.045,0,0,1-2.239-.933A3.1,3.1,0,0,1,5.244,44.431ZM15.917,70.292a3.456,3.456,0,0,1,.858-2.276l5.486-5.336a2.869,2.869,0,0,1,2.2-.858,3.161,3.161,0,0,1,2.239.858,2.79,2.79,0,0,1,.9,2.127,3.521,3.521,0,0,1-.9,2.388l-5.3,5.3a3.388,3.388,0,0,1-4.59,0A3.013,3.013,0,0,1,15.917,70.292Zm0-51.647a3.456,3.456,0,0,1,.858-2.276,3.583,3.583,0,0,1,2.388-.933,3.137,3.137,0,0,1,2.2.9L26.7,21.817a2.9,2.9,0,0,1,.9,2.2,3.061,3.061,0,0,1-3.135,3.135,2.9,2.9,0,0,1-2.2-.9l-5.448-5.336A3.124,3.124,0,0,1,15.917,18.645Zm9.516,25.786a18.835,18.835,0,0,1,2.612-9.7A19.488,19.488,0,0,1,35.173,27.6a19.145,19.145,0,0,1,17.241-1.045,19.5,19.5,0,0,1,6.195,4.18A19.581,19.581,0,0,1,64.28,44.468a18.871,18.871,0,0,1-2.612,9.74,19.571,19.571,0,0,1-7.09,7.09,19.464,19.464,0,0,1-19.48,0,19.571,19.571,0,0,1-7.09-7.09A19.827,19.827,0,0,1,25.433,44.431Zm6.344,0a13.187,13.187,0,0,0,13.136,13.21,13.251,13.251,0,0,0,13.21-13.21,12.58,12.58,0,0,0-3.881-9.217,12.786,12.786,0,0,0-9.329-3.806,12.618,12.618,0,0,0-9.255,3.806A12.438,12.438,0,0,0,31.777,44.431ZM41.7,73.464a2.931,2.931,0,0,1,.933-2.239,3.16,3.16,0,0,1,2.239-.9,3.124,3.124,0,0,1,2.276.9,3.038,3.038,0,0,1,.9,2.239V80.89a3.152,3.152,0,0,1-.933,2.314,3.045,3.045,0,0,1-2.239.933,2.987,2.987,0,0,1-2.239-.933A3.152,3.152,0,0,1,41.7,80.89V73.464Zm0-57.842V8.009a3.045,3.045,0,0,1,.933-2.239,3.1,3.1,0,0,1,2.276-.97,2.987,2.987,0,0,1,2.239.933,3.045,3.045,0,0,1,.933,2.239v7.65a2.828,2.828,0,0,1-.933,2.164,3.125,3.125,0,0,1-2.239.858,3.226,3.226,0,0,1-2.239-.858A2.937,2.937,0,0,1,41.7,15.622ZM62.3,64.806a2.931,2.931,0,0,1,2.948-2.948,3.161,3.161,0,0,1,2.239.858l5.448,5.336a3.248,3.248,0,0,1,.9,2.276,3.013,3.013,0,0,1-.9,2.2,3.323,3.323,0,0,1-4.478,0l-5.3-5.3A3.633,3.633,0,0,1,62.3,64.806Zm0-40.751a2.893,2.893,0,0,1,.858-2.2l5.3-5.486a3.137,3.137,0,0,1,2.2-.9,2.931,2.931,0,0,1,2.239.933,3.045,3.045,0,0,1,.933,2.239,3.151,3.151,0,0,1-.9,2.314l-5.448,5.336a3.291,3.291,0,0,1-2.239.9,2.71,2.71,0,0,1-2.09-.9A3.161,3.161,0,0,1,62.3,24.056Zm8.434,20.375a3.337,3.337,0,0,1,.9-2.314,2.906,2.906,0,0,1,2.127-.9H81.3a3.167,3.167,0,0,1,2.239,5.448A3.045,3.045,0,0,1,81.3,47.6H73.759a2.774,2.774,0,0,1-2.164-.933A3.226,3.226,0,0,1,70.736,44.431Z" transform="translate(-5.244 -4.8)" fill="#ffc400"/>
</svg>

