<svg xmlns="http://www.w3.org/2000/svg" width="89.738" height="69.907" viewBox="0 0 89.738 69.907">
  <path id="Icon_weather-day-cloudy" data-name="Icon weather-day-cloudy" d="M1.872,54.474A16.432,16.432,0,0,0,18.331,71H54.486A16.511,16.511,0,0,0,71.045,54.474a17.249,17.249,0,0,0-1.4-6.677A16.808,16.808,0,0,0,73.449,36.78a17.6,17.6,0,0,0-1.369-6.81A17.46,17.46,0,0,0,55.955,19.287,17.38,17.38,0,0,0,43,25.1a17.855,17.855,0,0,0-9.014-2.2,19.835,19.835,0,0,0-19.4,15.557,15.85,15.85,0,0,0-9.147,5.776A16.1,16.1,0,0,0,1.872,54.474Zm5.709,0a10.334,10.334,0,0,1,2.8-7.244A10.954,10.954,0,0,1,17.4,43.691l1.669-.1a.555.555,0,0,0,.634-.6l.234-1.8A14.287,14.287,0,0,1,24.64,32.14,13.477,13.477,0,0,1,34.021,28.5,13.876,13.876,0,0,1,43.6,32.173a13.32,13.32,0,0,1,4.574,9.047l.234,1.936a.64.64,0,0,0,.7.568h5.375A10.946,10.946,0,0,1,65.3,54.507a10.634,10.634,0,0,1-3.172,7.745,10.345,10.345,0,0,1-7.612,3.2H18.331a10.231,10.231,0,0,1-7.578-3.238A10.744,10.744,0,0,1,7.581,54.474ZM29.948,13.511a3.067,3.067,0,0,0,.8,2.1l2.2,2.137a3.126,3.126,0,0,0,2.137.835,2.46,2.46,0,0,0,1.836-.868,2.928,2.928,0,0,0,.8-2.07,2.531,2.531,0,0,0-.868-1.97l-1.97-2.2a2.964,2.964,0,0,0-2.036-.8,2.82,2.82,0,0,0-2.07.835A2.622,2.622,0,0,0,29.948,13.511ZM47.776,28.3a11.85,11.85,0,0,1,16.592.1,11.39,11.39,0,0,1,3.472,8.38,12.383,12.383,0,0,1-1.7,6.143,15.957,15.957,0,0,0-11.651-4.807H53.418A19.909,19.909,0,0,0,47.776,28.3Zm5.442-17.627a2.878,2.878,0,0,0,.768,2.07,2.567,2.567,0,0,0,1.97.768,2.878,2.878,0,0,0,2.07-.768,2.745,2.745,0,0,0,.768-2.07V3.83a2.642,2.642,0,0,0-.8-1.97,2.717,2.717,0,0,0-2.036-.768,2.748,2.748,0,0,0-1.97.768,2.567,2.567,0,0,0-.768,1.97Zm18.428,7.645a2.858,2.858,0,0,0,.734,2.07,3.451,3.451,0,0,0,2.07.8,3.35,3.35,0,0,0,1.97-.8l4.774-4.774a3.09,3.09,0,0,0,.8-2.137,2.737,2.737,0,0,0-2.771-2.8,2.518,2.518,0,0,0-1.936.8L72.38,16.249A3.209,3.209,0,0,0,71.646,18.318Zm2.637,39.527a2.951,2.951,0,0,0,.835,2.1l2.17,2.1a2.518,2.518,0,0,0,1.936.8,2.622,2.622,0,0,0,2-.835,2.872,2.872,0,0,0,.8-2.07,2.674,2.674,0,0,0-.8-1.936l-2.17-2.17a2.6,2.6,0,0,0-1.9-.8,2.718,2.718,0,0,0-2,.8A2.651,2.651,0,0,0,74.283,57.846ZM79.191,36.78a2.562,2.562,0,0,0,.868,1.936,2.794,2.794,0,0,0,2.036.8h6.81a2.725,2.725,0,0,0,1.936-.768,2.567,2.567,0,0,0,.768-1.97,2.828,2.828,0,0,0-.768-2,2.6,2.6,0,0,0-1.936-.835H82.1a2.746,2.746,0,0,0-2.036.835A2.635,2.635,0,0,0,79.191,36.78Z" transform="translate(-1.872 -1.092)" fill="#6dabd1"/>
</svg>
