<svg xmlns="http://www.w3.org/2000/svg" width="80" height="88.889" viewBox="0 0 80 88.889">
  <path id="Icon_material-location-off" data-name="Icon material-location-off" d="M47.444,23a11.079,11.079,0,0,1,7.422,19.333L71,58.467c4.356-8.267,7.556-16.889,7.556-24.356A31.088,31.088,0,0,0,25.044,12.556L39.222,26.733A10.868,10.868,0,0,1,47.444,23ZM66.867,65.667,46.289,45.089,45.8,44.6,8.644,7.444,3,13.089,17.133,27.222a32.092,32.092,0,0,0-.8,6.889c0,23.333,31.111,57.778,31.111,57.778A203.581,203.581,0,0,0,62.467,72.556L77.356,87.444,83,81.8Z" transform="translate(-3 -3)" fill="#bdb8f8"/>
</svg>
