<svg xmlns="http://www.w3.org/2000/svg" width="49.838" height="50.084" viewBox="0 0 49.838 50.084">
  <path id="Icon_weather-night-clear" data-name="Icon weather-night-clear" d="M9.492,33.9a25.259,25.259,0,0,1,7.3-17.67A25.52,25.52,0,0,1,24.8,10.866a24.26,24.26,0,0,1,9.7-2.01h4.021a.947.947,0,0,1,.811.988l.176,3.1a16.394,16.394,0,0,0,4.832,11.428A16.224,16.224,0,0,0,55.59,29.383l2.892.247a.738.738,0,0,1,.846.811V33.9a24.3,24.3,0,0,1-3.28,12.556,24.749,24.749,0,0,1-9.064,9.135A24.482,24.482,0,0,1,34.463,58.94a25.1,25.1,0,0,1-9.805-1.975,24.689,24.689,0,0,1-7.971-5.326A24.986,24.986,0,0,1,11.4,43.668,26.194,26.194,0,0,1,9.492,33.9Zm6.454,0a18.756,18.756,0,0,0,5.784,13.614,19.134,19.134,0,0,0,5.961,3.809,17.231,17.231,0,0,0,6.842,1.411,17.01,17.01,0,0,0,6.208-1.2,22.007,22.007,0,0,0,5.82-3.386,19.437,19.437,0,0,0,4.62-5.537,20.3,20.3,0,0,0,2.5-7.371A25.279,25.279,0,0,1,39.86,27.831a22.341,22.341,0,0,1-6-13.191,18.18,18.18,0,0,0-9.206,3.1,19.438,19.438,0,0,0-6.419,7.125A19.183,19.183,0,0,0,15.946,33.9Z" transform="translate(-9.492 -8.856)" fill="#d1c0d8"/>
</svg>