<svg xmlns="http://www.w3.org/2000/svg" width="90.406" height="78.925" viewBox="0 0 90.406 78.925">
  <g id="clouds-moon" transform="translate(-0.2 -5.975)">
    <path id="Path_23" data-name="Path 23" d="M51.5,52.9H50.4a23.473,23.473,0,0,0-2-5.3C45.1,41.4,39.2,38,31.9,38c-7.4,0-13.3,3.4-16.5,9.6a27.314,27.314,0,0,0-2,5.6A15.567,15.567,0,0,0,.2,68.9C.2,77.1,6,83.4,14,84.7a5.853,5.853,0,0,0,1.3.2H51.5c9.5,0,16.7-6.9,16.7-16C68.2,59.6,61.2,52.9,51.5,52.9Zm0,24H16.9c-6,0-8.7-4.1-8.7-8,0-4.8,3.5-8,8.7-8a4.058,4.058,0,0,0,4-3.9,14.894,14.894,0,0,1,1.7-6c1.8-3.4,4.9-5.1,9.2-5.1,4.4,0,7.5,1.7,9.4,5.1A16.073,16.073,0,0,1,43,57a4.043,4.043,0,0,0,4,3.8h4.5c5.2,0,8.7,3.2,8.7,8C60.2,72.7,57.5,76.9,51.5,76.9Z" fill="#bdb8f8"/>
    <path id="Path_24" data-name="Path 24" d="M78.9,42.2h-.6a16.549,16.549,0,0,0-1.4-3.6,12.586,12.586,0,0,0-11.7-6.8,15.251,15.251,0,0,0-4.9.8,13.745,13.745,0,0,1-12.5-7,14.066,14.066,0,0,1,.6-14.9,2.95,2.95,0,0,0,.2-3A3.177,3.177,0,0,0,46,6,20.785,20.785,0,0,0,34.6,8.8a21.173,21.173,0,0,0-9.9,23.4,2.983,2.983,0,1,0,5.8-1.4,15.127,15.127,0,0,1,7.1-16.7,12.971,12.971,0,0,1,3.2-1.4,20.363,20.363,0,0,0,1.7,16A19.594,19.594,0,0,0,54,37.8c-.2.3-.3.6-.5.9a15.629,15.629,0,0,0-1.7,6.5,3,3,0,1,0,6,.2c.1-1.3.7-7.5,7.4-7.5,6.8,0,7.5,6.3,7.5,7.5a3.058,3.058,0,0,0,3,2.9h3.1c3.5,0,5.8,2.1,5.8,5.3,0,2.6-1.8,5.3-5.8,5.3H75.2a3,3,0,0,0,0,6h3.6c6.7,0,11.8-4.9,11.8-11.3C90.8,47,85.8,42.2,78.9,42.2Z" fill="#bdb8f8"/>
  </g>
</svg>
