<svg xmlns="http://www.w3.org/2000/svg" width="90.501" height="53" viewBox="0 0 90.501 53">
  <g id="clouds" transform="translate(-0.2 -19)">
    <path id="Path_8" data-name="Path 8" d="M51.5,40H50.4a23.473,23.473,0,0,0-2-5.3c-3.3-6.2-9.2-9.6-16.5-9.6-7.4,0-13.3,3.4-16.5,9.6a27.314,27.314,0,0,0-2,5.6C5.6,41.8.2,47.9.2,56A15.793,15.793,0,0,0,14,71.8a5.853,5.853,0,0,0,1.3.2H51.5c9.5,0,16.7-6.9,16.7-16C68.2,46.8,61.2,40,51.5,40Zm0,24H16.9c-6,0-8.7-4.1-8.7-8,0-4.8,3.5-8,8.7-8a3.991,3.991,0,0,0,4-3.9c0-1.1.6-11.1,10.9-11.1,4.4,0,7.5,1.7,9.4,5.1a16.073,16.073,0,0,1,1.8,6,4.043,4.043,0,0,0,4,3.8h4.5c5.2,0,8.7,3.2,8.7,8C60.2,59.9,57.5,64,51.5,64Z" fill="#d1c0d8"/>
    <path id="Path_9" data-name="Path 9" d="M78.9,29.4h-.6a16.549,16.549,0,0,0-1.4-3.6A12.586,12.586,0,0,0,65.2,19c-5.2,0-9.4,2.4-11.6,6.8a15.629,15.629,0,0,0-1.7,6.5,3.075,3.075,0,0,0,2.9,3.1,3.005,3.005,0,0,0,3.1-2.9c.1-1.3.7-7.5,7.4-7.5,6.8,0,7.5,6.3,7.5,7.5a3.058,3.058,0,0,0,3,2.9h3.1c3.5,0,5.8,2.1,5.8,5.3,0,2.6-1.8,5.3-5.8,5.3H75.3a3,3,0,0,0,0,6h3.6c6.7,0,11.8-4.9,11.8-11.3C90.8,34.1,85.8,29.4,78.9,29.4Z" fill="#d1c0d8"/>
  </g>
</svg>
