<svg xmlns="http://www.w3.org/2000/svg" width="90.2" height="89.4" viewBox="0 0 90.2 89.4">
  <g id="cloud-drizzle-sun" transform="translate(-0.4 -0.8)">
    <path id="Path_10" data-name="Path 10" d="M20.2,65.7a2.769,2.769,0,0,0,.9.1,3.512,3.512,0,0,0,3.4-2.6l1.2-4.4A3.517,3.517,0,1,0,18.9,57l-1.2,4.4A3.534,3.534,0,0,0,20.2,65.7Z" fill="#6dabd1"/>
    <path id="Path_11" data-name="Path 11" d="M46.8,54.5A3.534,3.534,0,0,0,42.5,57l-1.2,4.4a3.489,3.489,0,0,0,2.5,4.3,2.769,2.769,0,0,0,.9.1,3.512,3.512,0,0,0,3.4-2.6l1.2-4.4A3.489,3.489,0,0,0,46.8,54.5Z" fill="#6dabd1"/>
    <path id="Path_12" data-name="Path 12" d="M32.8,62.6a3.489,3.489,0,0,0-4.3,2.5l-1.2,4.4a3.489,3.489,0,0,0,2.5,4.3,2.769,2.769,0,0,0,.9.1,3.512,3.512,0,0,0,3.4-2.6l1.2-4.4A3.489,3.489,0,0,0,32.8,62.6Z" fill="#6dabd1"/>
    <path id="Path_13" data-name="Path 13" d="M18.8,70.7a3.489,3.489,0,0,0-4.3,2.5l-1.2,4.4a3.489,3.489,0,0,0,2.5,4.3,2.769,2.769,0,0,0,.9.1,3.512,3.512,0,0,0,3.4-2.6L21.3,75A3.534,3.534,0,0,0,18.8,70.7Z" fill="#6dabd1"/>
    <path id="Path_14" data-name="Path 14" d="M42.5,70.7a3.489,3.489,0,0,0-4.3,2.5L37,77.6a3.489,3.489,0,0,0,2.5,4.3,2.769,2.769,0,0,0,.9.1,3.512,3.512,0,0,0,3.4-2.6L45,75A3.706,3.706,0,0,0,42.5,70.7Z" fill="#6dabd1"/>
    <path id="Path_15" data-name="Path 15" d="M28.4,78.9a3.489,3.489,0,0,0-4.3,2.5L23,85.8a3.489,3.489,0,0,0,2.5,4.3,2.769,2.769,0,0,0,.9.1,3.512,3.512,0,0,0,3.4-2.6L31,83.2A3.631,3.631,0,0,0,28.4,78.9Z" fill="#6dabd1"/>
    <path id="Path_16" data-name="Path 16" d="M74.1,32.9A15.62,15.62,0,0,0,58.5,17.3,14.937,14.937,0,0,0,49.8,20a3.023,3.023,0,1,0,3.4,5,9.489,9.489,0,0,1,5.4-1.6A9.6,9.6,0,0,1,68.2,33a9.257,9.257,0,0,1-1.1,4.4,2.878,2.878,0,0,0,1.3,4,3.194,3.194,0,0,0,1.4.3,3.152,3.152,0,0,0,2.7-1.6A17.609,17.609,0,0,0,74.1,32.9Z" fill="#ffc400"/>
    <path id="Path_17" data-name="Path 17" d="M58.5,12.5a2.946,2.946,0,0,0,3-3V3.8a3,3,0,0,0-6,0V9.5A3.009,3.009,0,0,0,58.5,12.5Z" fill="#ffc400"/>
    <path id="Path_18" data-name="Path 18" d="M87.6,29.9H81.9a3,3,0,0,0,0,6h5.7a2.946,2.946,0,0,0,3-3A3.009,3.009,0,0,0,87.6,29.9Z" fill="#ffc400"/>
    <path id="Path_19" data-name="Path 19" d="M75,19.4a2.878,2.878,0,0,0,2.1-.9l4-4a2.9,2.9,0,0,0,0-4.2,2.821,2.821,0,0,0-4.2-.1l-4,4a2.9,2.9,0,0,0,0,4.2A2.643,2.643,0,0,0,75,19.4Z" fill="#ffc400"/>
    <path id="Path_20" data-name="Path 20" d="M77.1,47.3a2.97,2.97,0,0,0-4.2,4.2l4,4a3.049,3.049,0,0,0,2.1.9,3,3,0,0,0,2.1-5.1Z" fill="#ffc400"/>
    <path id="Path_21" data-name="Path 21" d="M39.9,18.5a3.049,3.049,0,0,0,2.1.9,3,3,0,0,0,2.1-5.1l-4-4a2.936,2.936,0,0,0-4.3-.1,2.9,2.9,0,0,0,0,4.2Z" fill="#ffc400"/>
    <path id="Path_22" data-name="Path 22" d="M51.2,38.9H49.7a23.111,23.111,0,0,0-2.1-5.6C45.4,29,40.8,24,31.6,24s-13.8,5.1-16,9.4a21.09,21.09,0,0,0-2,5.8C5.8,40.4.4,46.4.4,54.4A15.261,15.261,0,0,0,6.8,66.9a3.511,3.511,0,0,0,4.1-5.7,8.034,8.034,0,0,1-3.4-6.8c0-5.1,3.7-8.5,9.2-8.5a3.523,3.523,0,0,0,3.5-3.4c0-1.2.7-11.5,11.4-11.5S43.2,41.4,43.3,42.6a3.438,3.438,0,0,0,3.5,3.3h4.5c5.5,0,9.2,3.4,9.2,8.5a8.2,8.2,0,0,1-6.9,8.3,3.585,3.585,0,0,0-2.8,4.1,3.424,3.424,0,0,0,3.4,2.8,1.952,1.952,0,0,0,.7-.1A15.347,15.347,0,0,0,67.5,54.3C67.4,45.4,60.6,38.9,51.2,38.9Z" fill="#6dabd1"/>
  </g>
</svg>
