<svg xmlns="http://www.w3.org/2000/svg" width="87.003" height="80.627" viewBox="0 0 87.003 80.627">
  <g id="cloud-drizzle-moon" transform="translate(-2 -5.173)">
    <path id="Path_23" data-name="Path 23" d="M22.2,61.3a2.769,2.769,0,0,0,.9.1,3.512,3.512,0,0,0,3.4-2.6l1.2-4.4a3.517,3.517,0,1,0-6.8-1.8L19.7,57A3.489,3.489,0,0,0,22.2,61.3Z" fill="#6dabd1"/>
    <path id="Path_24" data-name="Path 24" d="M48.9,50.2a3.489,3.489,0,0,0-4.3,2.5L43.4,57a3.489,3.489,0,0,0,2.5,4.3,2.769,2.769,0,0,0,.9.1,3.512,3.512,0,0,0,3.4-2.6l1.2-4.4A3.6,3.6,0,0,0,48.9,50.2Z" fill="#6dabd1"/>
    <path id="Path_25" data-name="Path 25" d="M34.8,58.3a3.489,3.489,0,0,0-4.3,2.5l-1.2,4.4a3.682,3.682,0,0,0,2.6,4.3,2.769,2.769,0,0,0,.9.1A3.512,3.512,0,0,0,36.2,67l1.2-4.4A3.631,3.631,0,0,0,34.8,58.3Z" fill="#6dabd1"/>
    <path id="Path_26" data-name="Path 26" d="M20.8,66.4a3.534,3.534,0,0,0-4.3,2.5l-1.2,4.4a3.489,3.489,0,0,0,2.5,4.3,2.769,2.769,0,0,0,.9.1,3.512,3.512,0,0,0,3.4-2.6l1.2-4.4A3.489,3.489,0,0,0,20.8,66.4Z" fill="#6dabd1"/>
    <path id="Path_27" data-name="Path 27" d="M44.5,66.4a3.489,3.489,0,0,0-4.3,2.5L39,73.3a3.489,3.489,0,0,0,2.5,4.3,2.769,2.769,0,0,0,.9.1,3.512,3.512,0,0,0,3.4-2.6L47,70.7A3.489,3.489,0,0,0,44.5,66.4Z" fill="#6dabd1"/>
    <path id="Path_28" data-name="Path 28" d="M30.5,74.5A3.489,3.489,0,0,0,26.2,77L25,81.4a3.489,3.489,0,0,0,2.5,4.3,2.769,2.769,0,0,0,.9.1,3.512,3.512,0,0,0,3.4-2.6L33,78.8A3.534,3.534,0,0,0,30.5,74.5Z" fill="#6dabd1"/>
    <path id="Path_29" data-name="Path 29" d="M53.3,34.1H52.2a23.473,23.473,0,0,0-2-5.3c-3.3-6.2-9.2-9.6-16.5-9.6-7.4,0-13.3,3.4-16.5,9.6a27.314,27.314,0,0,0-2,5.6A15.481,15.481,0,0,0,2,50.1,15.779,15.779,0,0,0,8.6,63a4.011,4.011,0,0,0,4.7-6.5,7.773,7.773,0,0,1-3.2-6.4c0-4.8,3.5-8,8.7-8a3.991,3.991,0,0,0,4-3.9c0-1.1.6-11.1,10.9-11.1,4.4,0,7.5,1.7,9.4,5.1a16.073,16.073,0,0,1,1.8,6,4.043,4.043,0,0,0,4,3.8h4.5c5.2,0,8.7,3.2,8.7,8a7.758,7.758,0,0,1-6.5,7.8,4,4,0,0,0-3.2,4.7,3.959,3.959,0,0,0,3.9,3.2,2.2,2.2,0,0,0,.8-.1,15.786,15.786,0,0,0,13-15.7C70,40.8,62.9,34.1,53.3,34.1Z" fill="#6dabd1"/>
    <path id="Path_30" data-name="Path 30" d="M88.5,30.9a2.986,2.986,0,0,0-2.7-1.3A12.636,12.636,0,0,1,74.4,9.9a2.95,2.95,0,0,0,.2-3A3.177,3.177,0,0,0,72,5.2,19,19,0,0,0,61.4,7.8a19.772,19.772,0,0,0-9.7,14.5,3.086,3.086,0,0,0,2.6,3.4,3.03,3.03,0,0,0,3.4-2.6A13.78,13.78,0,0,1,64.4,13a11.176,11.176,0,0,1,2.5-1.1,18.221,18.221,0,0,0,1.8,14.4A18.789,18.789,0,0,0,80.3,35a17.684,17.684,0,0,1-2.2,1.6,13.611,13.611,0,0,1-2.5,1.1,3.033,3.033,0,0,0,.9,5.9,1.486,1.486,0,0,0,.9-.2A19.639,19.639,0,0,0,81,41.8a20.606,20.606,0,0,0,7.6-7.9A2.729,2.729,0,0,0,88.5,30.9Z" fill="#d1c0d8"/>
  </g>
</svg>
