<svg xmlns="http://www.w3.org/2000/svg" width="90.6" height="90" viewBox="0 0 90.6 90">
  <g id="cloud-hail-sun" transform="translate(-0.2 -0.5)">
    <path id="Path_39" data-name="Path 39" d="M23.8,54.8a3.489,3.489,0,0,0-4.3,2.5L16.1,69.9a3.489,3.489,0,0,0,2.5,4.3,2.769,2.769,0,0,0,.9.1,3.512,3.512,0,0,0,3.4-2.6l3.4-12.6A3.706,3.706,0,0,0,23.8,54.8Z" fill="#6dabd1"/>
    <path id="Path_40" data-name="Path 40" d="M14.7,76.8a3.74,3.74,0,0,0-1,2.5,3.946,3.946,0,0,0,1,2.5,3.946,3.946,0,0,0,2.5,1,3.946,3.946,0,0,0,2.5-1,3.471,3.471,0,0,0,1-2.5,3.946,3.946,0,0,0-1-2.5A3.692,3.692,0,0,0,14.7,76.8Z" fill="#6dabd1"/>
    <path id="Path_41" data-name="Path 41" d="M23.9,84.5a3.317,3.317,0,0,0-1,2.5,3.946,3.946,0,0,0,1,2.5,3.625,3.625,0,0,0,5,0,3.625,3.625,0,0,0,0-5A3.692,3.692,0,0,0,23.9,84.5Z" fill="#6dabd1"/>
    <path id="Path_42" data-name="Path 42" d="M37.2,76.8a3.317,3.317,0,0,0-1,2.5,3.946,3.946,0,0,0,1,2.5,3.552,3.552,0,0,0,2.5,1,3.946,3.946,0,0,0,2.5-1,3.471,3.471,0,0,0,1-2.5,3.946,3.946,0,0,0-1-2.5A3.693,3.693,0,0,0,37.2,76.8Z" fill="#6dabd1"/>
    <path id="Path_43" data-name="Path 43" d="M33,62.5A3.489,3.489,0,0,0,28.7,65L25.3,77.6a3.489,3.489,0,0,0,2.5,4.3,2.769,2.769,0,0,0,.9.1,3.512,3.512,0,0,0,3.4-2.6l3.4-12.6A3.617,3.617,0,0,0,33,62.5Z" fill="#6dabd1"/>
    <path id="Path_44" data-name="Path 44" d="M46.3,54.8A3.489,3.489,0,0,0,42,57.3L38.6,69.9a3.489,3.489,0,0,0,2.5,4.3,2.769,2.769,0,0,0,.9.1,3.512,3.512,0,0,0,3.4-2.6l3.4-12.6A3.534,3.534,0,0,0,46.3,54.8Z" fill="#6dabd1"/>
    <path id="Path_45" data-name="Path 45" d="M74.4,32.5A15.62,15.62,0,0,0,58.8,16.9a14.937,14.937,0,0,0-8.7,2.7,3.023,3.023,0,1,0,3.4,5A9.489,9.489,0,0,1,58.9,23a9.6,9.6,0,0,1,9.6,9.6A9.257,9.257,0,0,1,67.4,37a2.878,2.878,0,0,0,1.3,4,3.194,3.194,0,0,0,1.4.3,3.152,3.152,0,0,0,2.7-1.6A17.609,17.609,0,0,0,74.4,32.5Z" fill="#ffc400"/>
    <path id="Path_46" data-name="Path 46" d="M58.8,12.2a2.946,2.946,0,0,0,3-3V3.5a3,3,0,0,0-6,0V9.2A2.946,2.946,0,0,0,58.8,12.2Z" fill="#ffc400"/>
    <path id="Path_47" data-name="Path 47" d="M87.8,29.5H82.1a3,3,0,0,0,0,6h5.7a3,3,0,0,0,0-6Z" fill="#ffc400"/>
    <path id="Path_48" data-name="Path 48" d="M75.3,19a2.878,2.878,0,0,0,2.1-.9l4-4a2.97,2.97,0,0,0-4.2-4.2l-4,4a2.9,2.9,0,0,0,0,4.2A2.723,2.723,0,0,0,75.3,19Z" fill="#ffc400"/>
    <path id="Path_49" data-name="Path 49" d="M77.4,46.9a2.97,2.97,0,1,0-4.2,4.2l4,4a3.049,3.049,0,0,0,2.1.9,3,3,0,0,0,2.1-5.1Z" fill="#ffc400"/>
    <path id="Path_50" data-name="Path 50" d="M40.1,18.2a3.049,3.049,0,0,0,2.1.9A3,3,0,0,0,44.3,14l-4-4a2.97,2.97,0,0,0-4.2,4.2Z" fill="#ffc400"/>
    <path id="Path_51" data-name="Path 51" d="M51.5,38.1H50.4a23.473,23.473,0,0,0-2-5.3c-3.3-6.2-9.2-9.6-16.5-9.6-7.4,0-13.3,3.4-16.5,9.6a27.314,27.314,0,0,0-2,5.6A15.409,15.409,0,0,0,.2,54.1,15.779,15.779,0,0,0,6.8,67a4.011,4.011,0,0,0,4.7-6.5,7.773,7.773,0,0,1-3.2-6.4c0-4.8,3.5-8,8.7-8a3.991,3.991,0,0,0,4-3.9c0-1.1.6-11.1,10.9-11.1,4.4,0,7.5,1.7,9.4,5.1a16.073,16.073,0,0,1,1.8,6,4.043,4.043,0,0,0,4,3.8h4.5c5.2,0,8.7,3.2,8.7,8a7.758,7.758,0,0,1-6.5,7.8,4,4,0,0,0-3.2,4.7,3.959,3.959,0,0,0,3.9,3.2,2.2,2.2,0,0,0,.8-.1,15.786,15.786,0,0,0,13-15.7C68.2,44.8,61.2,38.1,51.5,38.1Z" fill="#6dabd1"/>
  </g>
</svg>
