<svg xmlns="http://www.w3.org/2000/svg" width="87.003" height="81.325" viewBox="0 0 87.003 81.325">
  <g id="cloud-hail-moon" transform="translate(-2 -4.875)">
    <path id="Path_52" data-name="Path 52" d="M25.5,50.5A3.489,3.489,0,0,0,21.2,53L17.8,65.6a3.489,3.489,0,0,0,2.5,4.3,2.769,2.769,0,0,0,.9.1,3.512,3.512,0,0,0,3.4-2.6L28,54.8A3.489,3.489,0,0,0,25.5,50.5Z" fill="#6dabd1"/>
    <path id="Path_53" data-name="Path 53" d="M16.5,72.5a3.471,3.471,0,0,0-1,2.5,3.946,3.946,0,0,0,1,2.5,3.552,3.552,0,0,0,2.5,1,3.946,3.946,0,0,0,2.5-1,3.471,3.471,0,0,0,1-2.5,3.946,3.946,0,0,0-1-2.5A3.692,3.692,0,0,0,16.5,72.5Z" fill="#6dabd1"/>
    <path id="Path_54" data-name="Path 54" d="M25.7,80.2a3.74,3.74,0,0,0-1,2.5,3.946,3.946,0,0,0,1,2.5,3.74,3.74,0,0,0,2.5,1,3.946,3.946,0,0,0,2.5-1,3.471,3.471,0,0,0,1-2.5,3.946,3.946,0,0,0-1-2.5A3.692,3.692,0,0,0,25.7,80.2Z" fill="#6dabd1"/>
    <path id="Path_55" data-name="Path 55" d="M39,72.5A3.471,3.471,0,0,0,38,75a3.418,3.418,0,0,0,3.5,3.5,3.536,3.536,0,0,0,2.5-6A3.692,3.692,0,0,0,39,72.5Z" fill="#6dabd1"/>
    <path id="Path_56" data-name="Path 56" d="M34.8,58.2a3.489,3.489,0,0,0-4.3,2.5L27.1,73.3a3.489,3.489,0,0,0,2.5,4.3,2.769,2.769,0,0,0,.9.1,3.512,3.512,0,0,0,3.4-2.6l3.4-12.6A3.568,3.568,0,0,0,34.8,58.2Z" fill="#6dabd1"/>
    <path id="Path_57" data-name="Path 57" d="M48.1,50.5A3.489,3.489,0,0,0,43.8,53L40.4,65.6a3.489,3.489,0,0,0,2.5,4.3,2.769,2.769,0,0,0,.9.1,3.512,3.512,0,0,0,3.4-2.6l3.4-12.6A3.489,3.489,0,0,0,48.1,50.5Z" fill="#6dabd1"/>
    <path id="Path_58" data-name="Path 58" d="M53.3,33.7H52.2a23.473,23.473,0,0,0-2-5.3c-3.3-6.2-9.2-9.6-16.5-9.6-7.4,0-13.3,3.4-16.5,9.6a27.314,27.314,0,0,0-2,5.6C7.3,35.5,2,41.6,2,49.7A15.779,15.779,0,0,0,8.6,62.6a4.011,4.011,0,0,0,4.7-6.5,7.773,7.773,0,0,1-3.2-6.4c0-4.8,3.5-8,8.7-8a3.991,3.991,0,0,0,4-3.9c0-1.1.6-11.1,10.9-11.1,4.4,0,7.5,1.7,9.4,5.1a16.073,16.073,0,0,1,1.8,6,4.043,4.043,0,0,0,4,3.8h4.5c5.2,0,8.7,3.2,8.7,8a7.758,7.758,0,0,1-6.5,7.8,4,4,0,0,0-3.2,4.7,3.959,3.959,0,0,0,3.9,3.2,2.2,2.2,0,0,0,.8-.1,15.786,15.786,0,0,0,13-15.7C70,40.5,62.9,33.7,53.3,33.7Z" fill="#6dabd1"/>
    <path id="Path_59" data-name="Path 59" d="M88.5,30.6a2.986,2.986,0,0,0-2.7-1.3A12.636,12.636,0,0,1,74.4,9.6a2.95,2.95,0,0,0,.2-3A3.177,3.177,0,0,0,72,4.9,19.667,19.667,0,0,0,51.7,22a3.086,3.086,0,0,0,2.6,3.4,3.03,3.03,0,0,0,3.4-2.6,13.78,13.78,0,0,1,6.7-10.1,11.176,11.176,0,0,1,2.5-1.1A18.221,18.221,0,0,0,68.7,26a18.789,18.789,0,0,0,11.6,8.7,17.684,17.684,0,0,1-2.2,1.6,13.611,13.611,0,0,1-2.5,1.1,3.033,3.033,0,0,0,.9,5.9,1.486,1.486,0,0,0,.9-.2A19.639,19.639,0,0,0,81,41.5a20.606,20.606,0,0,0,7.6-7.9A2.722,2.722,0,0,0,88.5,30.6Z" fill="#d1c0d8"/>
  </g>
</svg>
