<svg xmlns="http://www.w3.org/2000/svg" width="90.6" height="84.3" viewBox="0 0 90.6 84.3">
  <g id="cloud-hail-lightning-sun" transform="translate(-0.2 -3.3)">
    <path id="Path_60" data-name="Path 60" d="M23.8,57.6a3.489,3.489,0,0,0-4.3,2.5L16.1,72.7A3.489,3.489,0,0,0,18.6,77a2.769,2.769,0,0,0,.9.1,3.512,3.512,0,0,0,3.4-2.6l3.4-12.6A3.706,3.706,0,0,0,23.8,57.6Z" fill="#6dabd1"/>
    <path id="Path_61" data-name="Path 61" d="M14.7,79.6a3.74,3.74,0,0,0-1,2.5,3.946,3.946,0,0,0,1,2.5,3.471,3.471,0,0,0,2.5,1,3.946,3.946,0,0,0,2.5-1,3.317,3.317,0,0,0,1-2.5,3.946,3.946,0,0,0-1-2.5A3.692,3.692,0,0,0,14.7,79.6Z" fill="#6dabd1"/>
    <path id="Path_62" data-name="Path 62" d="M46,65.9H41.6l5.5-7.7a1.542,1.542,0,0,0,.1-1.6,1.561,1.561,0,0,0-1.3-.8H35a1.5,1.5,0,0,0-1.4,1L27.5,72.6a1.4,1.4,0,0,0,.2,1.4,1.425,1.425,0,0,0,1.2.6h3.2l-4.2,11a1.443,1.443,0,0,0,.6,1.8,1.884,1.884,0,0,0,.8.2,1.606,1.606,0,0,0,1.1-.5L47,68.3a1.358,1.358,0,0,0,.2-1.6C47.2,66.3,46.6,65.9,46,65.9Z" fill="#ffc400"/>
    <path id="Path_63" data-name="Path 63" d="M74.4,35.3A15.62,15.62,0,0,0,58.8,19.7a14.937,14.937,0,0,0-8.7,2.7,3.023,3.023,0,1,0,3.4,5,9.489,9.489,0,0,1,5.4-1.6,9.6,9.6,0,0,1,9.6,9.6,9.257,9.257,0,0,1-1.1,4.4,2.878,2.878,0,0,0,1.3,4,3.194,3.194,0,0,0,1.4.3,3.152,3.152,0,0,0,2.7-1.6A17.254,17.254,0,0,0,74.4,35.3Z" fill="#ffc400"/>
    <path id="Path_64" data-name="Path 64" d="M58.8,15a2.946,2.946,0,0,0,3-3V6.3a3,3,0,0,0-6,0V12A2.946,2.946,0,0,0,58.8,15Z" fill="#ffc400"/>
    <path id="Path_65" data-name="Path 65" d="M87.8,32.3H82.1a3,3,0,0,0,0,6h5.7a3,3,0,0,0,0-6Z" fill="#ffc400"/>
    <path id="Path_66" data-name="Path 66" d="M75.3,21.8a2.878,2.878,0,0,0,2.1-.9l4-4a2.97,2.97,0,0,0-4.2-4.2l-4,4a2.9,2.9,0,0,0,0,4.2A2.428,2.428,0,0,0,75.3,21.8Z" fill="#ffc400"/>
    <path id="Path_67" data-name="Path 67" d="M77.4,49.7a2.97,2.97,0,1,0-4.2,4.2l4,4a3.049,3.049,0,0,0,2.1.9,3,3,0,0,0,2.1-5.1Z" fill="#ffc400"/>
    <path id="Path_68" data-name="Path 68" d="M40.1,21a3.049,3.049,0,0,0,2.1.9,3,3,0,0,0,2.1-5.1l-4-4A2.97,2.97,0,0,0,36.1,17Z" fill="#ffc400"/>
    <path id="Path_69" data-name="Path 69" d="M51.5,40.9H50.4a23.473,23.473,0,0,0-2-5.3C45.1,29.4,39.2,26,31.9,26c-7.4,0-13.3,3.4-16.5,9.6a27.314,27.314,0,0,0-2,5.6A15.481,15.481,0,0,0,.2,56.9,15.779,15.779,0,0,0,6.8,69.8a4.011,4.011,0,0,0,4.7-6.5,7.773,7.773,0,0,1-3.2-6.4c0-4.8,3.5-8,8.7-8A3.991,3.991,0,0,0,21,45c0-1.1.6-11.1,10.9-11.1,4.4,0,7.5,1.7,9.4,5.1a16.073,16.073,0,0,1,1.8,6,4.043,4.043,0,0,0,4,3.8h4.5c5.2,0,8.7,3.2,8.7,8a7.758,7.758,0,0,1-6.5,7.8,4,4,0,0,0-3.2,4.7,3.959,3.959,0,0,0,3.9,3.2,2.2,2.2,0,0,0,.8-.1,15.786,15.786,0,0,0,13-15.7C68.2,47.6,61.2,40.9,51.5,40.9Z" fill="#6dabd1"/>
  </g>
</svg>
