<svg xmlns="http://www.w3.org/2000/svg" width="87.003" height="75.625" viewBox="0 0 87.003 75.625">
  <g id="cloud-hail-lightning-moon" transform="translate(-2 -7.675)">
    <path id="Path_70" data-name="Path 70" d="M53.3,36.5H52.2a23.473,23.473,0,0,0-2-5.3C46.9,25,41,21.6,33.7,21.6c-7.4,0-13.3,3.4-16.5,9.6a27.314,27.314,0,0,0-2,5.6C7.3,38.3,2,44.4,2,52.5A15.779,15.779,0,0,0,8.6,65.4a4.011,4.011,0,0,0,4.7-6.5,7.773,7.773,0,0,1-3.2-6.4c0-4.8,3.5-8,8.7-8a3.991,3.991,0,0,0,4-3.9c0-1.1.6-11.1,10.9-11.1,4.4,0,7.5,1.7,9.4,5.1a16.073,16.073,0,0,1,1.8,6,4.043,4.043,0,0,0,4,3.8h4.5c5.2,0,8.7,3.2,8.7,8a7.758,7.758,0,0,1-6.5,7.8,4,4,0,0,0-3.2,4.7,3.959,3.959,0,0,0,3.9,3.2,2.2,2.2,0,0,0,.8-.1,15.786,15.786,0,0,0,13-15.7C70,43.3,62.9,36.5,53.3,36.5Z" fill="#6dabd1"/>
    <path id="Path_71" data-name="Path 71" d="M88.5,33.4a2.986,2.986,0,0,0-2.7-1.3A12.636,12.636,0,0,1,74.4,12.4a2.95,2.95,0,0,0,.2-3A3.177,3.177,0,0,0,72,7.7,19.667,19.667,0,0,0,51.7,24.8a3.086,3.086,0,0,0,2.6,3.4,3.03,3.03,0,0,0,3.4-2.6,13.78,13.78,0,0,1,6.7-10.1,11.176,11.176,0,0,1,2.5-1.1,18.221,18.221,0,0,0,1.8,14.4,18.789,18.789,0,0,0,11.6,8.7,17.684,17.684,0,0,1-2.2,1.6,13.611,13.611,0,0,1-2.5,1.1,3.033,3.033,0,0,0,.9,5.9,1.486,1.486,0,0,0,.9-.2A19.639,19.639,0,0,0,81,44.3a20.606,20.606,0,0,0,7.6-7.9A2.722,2.722,0,0,0,88.5,33.4Z" fill="#d1c0d8"/>
    <path id="Path_72" data-name="Path 72" d="M25.5,53.3a3.489,3.489,0,0,0-4.3,2.5L17.8,68.4a3.489,3.489,0,0,0,2.5,4.3,2.769,2.769,0,0,0,.9.1,3.512,3.512,0,0,0,3.4-2.6L28,57.6A3.489,3.489,0,0,0,25.5,53.3Z" fill="#6dabd1"/>
    <path id="Path_73" data-name="Path 73" d="M16.5,75.3a3.317,3.317,0,0,0-1,2.5,3.946,3.946,0,0,0,1,2.5,3.174,3.174,0,0,0,2.5,1,3.946,3.946,0,0,0,2.5-1,3.471,3.471,0,0,0,1-2.5,3.946,3.946,0,0,0-1-2.5A3.692,3.692,0,0,0,16.5,75.3Z" fill="#6dabd1"/>
    <path id="Path_74" data-name="Path 74" d="M47.8,61.6H43.4l5.5-7.7a1.542,1.542,0,0,0,.1-1.6,1.561,1.561,0,0,0-1.3-.8H36.8a1.5,1.5,0,0,0-1.4,1L29.3,68.3a1.4,1.4,0,0,0,.2,1.4,1.425,1.425,0,0,0,1.2.6h3.2l-4.2,11a1.443,1.443,0,0,0,.6,1.8,1.884,1.884,0,0,0,.8.2,1.606,1.606,0,0,0,1.1-.5L49,64.1a1.358,1.358,0,0,0,.2-1.6A1.693,1.693,0,0,0,47.8,61.6Z" fill="#ffc400"/>
  </g>
</svg>
