<svg xmlns="http://www.w3.org/2000/svg" width="67.901" height="64" viewBox="0 0 67.901 64">
  <g id="cloud-snow" transform="translate(-11.5 -13.5)">
    <path id="Path_83" data-name="Path 83" d="M62.8,28.4H61.7a23.473,23.473,0,0,0-2-5.3c-3.3-6.2-9.2-9.6-16.5-9.6-7.4,0-13.3,3.4-16.5,9.6a27.314,27.314,0,0,0-2,5.6A15.567,15.567,0,0,0,11.5,44.4a15.944,15.944,0,0,0,4.7,11.4A4.031,4.031,0,1,0,21.8,50a7.928,7.928,0,0,1-2.3-5.7c0-4.8,3.5-8,8.7-8a3.991,3.991,0,0,0,4-3.9c0-1.1.6-11.1,10.9-11.1,4.4,0,7.5,1.7,9.4,5.1a16.073,16.073,0,0,1,1.8,6,4.043,4.043,0,0,0,4,3.8h4.5c5.2,0,8.7,3.2,8.7,8a7.743,7.743,0,0,1-5.3,7.5,4.022,4.022,0,0,0-2.5,5.1,3.959,3.959,0,0,0,3.8,2.7,5.853,5.853,0,0,0,1.3-.2,15.524,15.524,0,0,0,10.6-15C79.5,35.1,72.5,28.4,62.8,28.4Z" fill="#d1c0d8"/>
    <path id="Path_84" data-name="Path 84" d="M43.6,50.1a2.946,2.946,0,0,0,3-3V44.3a3,3,0,0,0-6,0v2.8A2.946,2.946,0,0,0,43.6,50.1Z" fill="#d1c0d8"/>
    <path id="Path_85" data-name="Path 85" d="M43.6,55.4a3.631,3.631,0,0,0-2.8,1.2,4.2,4.2,0,0,0-1.2,2.8,4.1,4.1,0,0,0,4,4,3.631,3.631,0,0,0,2.8-1.2,3.784,3.784,0,0,0,1.2-2.8,3.631,3.631,0,0,0-1.2-2.8A3.784,3.784,0,0,0,43.6,55.4Z" fill="#d1c0d8"/>
    <path id="Path_86" data-name="Path 86" d="M43.6,68.7a2.946,2.946,0,0,0-3,3v2.8a3,3,0,0,0,6,0V71.7A2.946,2.946,0,0,0,43.6,68.7Z" fill="#d1c0d8"/>
    <path id="Path_87" data-name="Path 87" d="M55.2,49.2l-2.5,1.4a3.062,3.062,0,0,0-1.1,4.1,3.013,3.013,0,0,0,2.6,1.5,2.822,2.822,0,0,0,1.5-.4l2.5-1.4a3,3,0,1,0-3-5.2Z" fill="#d1c0d8"/>
    <path id="Path_88" data-name="Path 88" d="M31.5,63,29,64.4a3.062,3.062,0,0,0-1.1,4.1A3.013,3.013,0,0,0,30.5,70a2.822,2.822,0,0,0,1.5-.4l2.5-1.4a3.062,3.062,0,0,0,1.1-4.1A2.912,2.912,0,0,0,31.5,63Z" fill="#d1c0d8"/>
    <path id="Path_89" data-name="Path 89" d="M58.2,64.4,55.7,63a3,3,0,1,0-3,5.2l2.5,1.4a2.822,2.822,0,0,0,1.5.4,3,3,0,0,0,1.5-5.6Z" fill="#d1c0d8"/>
    <path id="Path_90" data-name="Path 90" d="M29,54.4l2.5,1.4a2.822,2.822,0,0,0,1.5.4,3.013,3.013,0,0,0,2.6-1.5,3.062,3.062,0,0,0-1.1-4.1L32,49.2a3,3,0,1,0-3,5.2Z" fill="#d1c0d8"/>
  </g>
</svg>
