<svg xmlns="http://www.w3.org/2000/svg" width="90.2" height="70.5" viewBox="0 0 90.2 70.5">
  <g id="cloud-wind-2-sun" transform="translate(-0.4 -10.2)">
    <path id="Path_91" data-name="Path 91" d="M57.6,41.7h-.8a16.408,16.408,0,0,0-1.7-4.4,15.065,15.065,0,0,0-13.9-8.1c-7.7,0-13.3,4.4-15.3,12A3.517,3.517,0,1,0,32.7,43c1.8-6.8,6.9-6.8,8.6-6.8,8.2,0,9.1,7.6,9.1,9.1a3.438,3.438,0,0,0,3.5,3.3h3.8c4.3,0,7.1,2.6,7.1,6.5,0,3.1-2.2,6.5-7.1,6.5H3.9a3.5,3.5,0,1,0,0,7H57.6c8,0,14.1-5.8,14.1-13.5S65.7,41.7,57.6,41.7Z" fill="#6dabd1"/>
    <path id="Path_92" data-name="Path 92" d="M75.4,43.4a13.1,13.1,0,0,0,1.5-6.1A13.359,13.359,0,0,0,63.6,24a12.959,12.959,0,0,0-7.4,2.3,2.732,2.732,0,1,0,3.1,4.5,7.578,7.578,0,0,1,4.4-1.3,7.81,7.81,0,0,1,7.8,7.8,7.4,7.4,0,0,1-.9,3.6,2.72,2.72,0,0,0,1.2,3.7,2.768,2.768,0,0,0,1.3.3A2.9,2.9,0,0,0,75.4,43.4Z" fill="#ffc400"/>
    <path id="Path_93" data-name="Path 93" d="M63.6,20.5a2.8,2.8,0,0,0,2.8-2.8V13a2.8,2.8,0,1,0-5.6,0v4.8A2.775,2.775,0,0,0,63.6,20.5Z" fill="#ffc400"/>
    <path id="Path_94" data-name="Path 94" d="M87.8,34.5H83a2.8,2.8,0,1,0,0,5.6h4.8a2.8,2.8,0,1,0,0-5.6Z" fill="#ffc400"/>
    <path id="Path_95" data-name="Path 95" d="M77.3,26.3a2.732,2.732,0,0,0,1.9-.8l3.4-3.4a2.758,2.758,0,0,0-3.9-3.9l-3.4,3.4a2.717,2.717,0,0,0,0,3.9A3.176,3.176,0,0,0,77.3,26.3Z" fill="#ffc400"/>
    <path id="Path_96" data-name="Path 96" d="M79.3,49.1A2.758,2.758,0,0,0,75.4,53l3.4,3.4a2.723,2.723,0,0,0,3.8-3.9Z" fill="#ffc400"/>
    <path id="Path_97" data-name="Path 97" d="M47.9,25.4a2.723,2.723,0,0,0,3.8-3.9l-3.4-3.4A2.758,2.758,0,1,0,44.4,22Z" fill="#ffc400"/>
    <path id="Path_98" data-name="Path 98" d="M12.5,56.7h28a3.5,3.5,0,0,0,0-7h-28A3.543,3.543,0,0,0,9,53.2,3.418,3.418,0,0,0,12.5,56.7Z" fill="#6dabd1"/>
    <path id="Path_99" data-name="Path 99" d="M52.4,73.7H17.3a3.5,3.5,0,1,0,0,7H52.4a3.5,3.5,0,0,0,0-7Z" fill="#6dabd1"/>
  </g>
</svg>
